P3
4 4
20
0
15
0
5
5
5
0
0
15
12
14
19
10
15
12
15
15
15
10
15
12
20
20
20
10
15
20
5
5
5
5
10
15
0
10
4
0
5
0
7
12
4
0
0
15
10
10
10
